<?xml version="1.0" encoding="UTF-8"?>
<!DOCTYPE svg PUBLIC "-//W3C//DTD SVG 1.1//EN" "http://www.w3.org/Graphics/SVG/1.1/DTD/svg11.dtd">
<svg xmlns="http://www.w3.org/2000/svg" version="1.1" width="64px" height="64px" style="shape-rendering:geometricPrecision; text-rendering:geometricPrecision; image-rendering:optimizeQuality; fill-rule:evenodd; clip-rule:evenodd" xmlns:xlink="http://www.w3.org/1999/xlink">
<g><path style="opacity:1" fill="#000000" d="M 4.5,-0.5 C 22.5,-0.5 40.5,-0.5 58.5,-0.5C 60.5,0.833333 62.1667,2.5 63.5,4.5C 63.5,22.5 63.5,40.5 63.5,58.5C 62.1667,60.5 60.5,62.1667 58.5,63.5C 40.5,63.5 22.5,63.5 4.5,63.5C 2.5,62.1667 0.833333,60.5 -0.5,58.5C -0.5,40.5 -0.5,22.5 -0.5,4.5C 0.833333,2.5 2.5,0.833333 4.5,-0.5 Z"/></g>
<g><path style="opacity:1" fill="#171767" d="M 34.5,13.5 C 35.3414,15.3792 35.6747,17.3792 35.5,19.5C 28.1213,18.182 21.4547,19.8487 15.5,24.5C 14.8165,24.1373 14.1499,23.8039 13.5,23.5C 13.6086,16.8792 16.9419,12.7126 23.5,11C 26.1667,10.3333 28.8333,10.3333 31.5,11C 32.9423,11.3768 33.9423,12.2101 34.5,13.5 Z"/></g>
<g><path style="opacity:1" fill="#060532" d="M 34.5,13.5 C 35.609,13.5569 36.609,13.8902 37.5,14.5C 36.5269,16.0683 36.3603,17.735 37,19.5C 39.944,20.7226 42.444,22.5559 44.5,25C 46.7406,25.1242 48.0739,23.9575 48.5,21.5C 49.1667,21.5 49.5,21.8333 49.5,22.5C 46.9965,28.6675 44.6632,35.0009 42.5,41.5C 43.0047,42.9185 44.0047,43.5852 45.5,43.5C 45.5,44.1667 45.1667,44.5 44.5,44.5C 39.2333,42.6332 35.5667,44.2998 33.5,49.5C 33.1667,49.5 32.8333,49.5 32.5,49.5C 32.7031,47.9557 33.3698,46.6223 34.5,45.5C 29.2893,43.4297 23.9559,41.763 18.5,40.5C 17.5713,41.6888 17.238,43.0222 17.5,44.5C 16.8333,44.1667 16.1667,43.8333 15.5,43.5C 16.529,40.4075 16.529,37.2408 15.5,34C 15.6568,31.3631 16.3235,28.8631 17.5,26.5C 15.9052,25.5661 14.2385,25.5661 12.5,26.5C 13.1098,25.609 13.4431,24.609 13.5,23.5C 14.1499,23.8039 14.8165,24.1373 15.5,24.5C 21.4547,19.8487 28.1213,18.182 35.5,19.5C 35.6747,17.3792 35.3414,15.3792 34.5,13.5 Z"/></g>
<g><path style="opacity:1" fill="#171767" d="M 37.5,14.5 C 43.4123,13.6087 47.0789,15.942 48.5,21.5C 48.0739,23.9575 46.7406,25.1242 44.5,25C 42.444,22.5559 39.944,20.7226 37,19.5C 36.3603,17.735 36.5269,16.0683 37.5,14.5 Z"/></g>
<g><path style="opacity:1" fill="#161663" d="M 27.5,19.5 C 28.8221,19.33 29.9887,19.6634 31,20.5C 32.541,22.477 33.041,24.477 32.5,26.5C 29.4452,25.8065 26.4452,25.4732 23.5,25.5C 23.937,22.775 25.2704,20.775 27.5,19.5 Z"/></g>
<g><path style="opacity:1" fill="#171766" d="M 33.5,20.5 C 43.316,22.2397 46.6494,27.5731 43.5,36.5C 41.7376,36.3573 40.0709,36.6906 38.5,37.5C 37.2918,31.6613 35.6252,25.9946 33.5,20.5 Z"/></g>
<g><path style="opacity:1" fill="#171766" d="M 21.5,21.5 C 22.3764,21.3691 23.0431,21.7025 23.5,22.5C 22.4068,26.1078 22.2401,29.7745 23,33.5C 23.0929,36.0075 23.9262,38.1741 25.5,40C 20.2895,41.2322 17.2895,39.2322 16.5,34C 17.1936,29.3389 18.8603,25.1722 21.5,21.5 Z"/></g>
<g><path style="opacity:1" fill="#171766" d="M 49.5,22.5 C 51.9115,22.1367 53.4115,23.1367 54,25.5C 54.9369,30.4033 54.2702,35.0699 52,39.5C 50.3621,41.7337 48.1955,43.067 45.5,43.5C 44.0047,43.5852 43.0047,42.9185 42.5,41.5C 44.6632,35.0009 46.9965,28.6675 49.5,22.5 Z"/></g>
<g><path style="opacity:1" fill="#171766" d="M 15.5,43.5 C 8.85842,41.6179 6.69175,37.2846 9,30.5C 9.68972,28.6498 10.8564,27.3164 12.5,26.5C 14.2385,25.5661 15.9052,25.5661 17.5,26.5C 16.3235,28.8631 15.6568,31.3631 15.5,34C 16.529,37.2408 16.529,40.4075 15.5,43.5 Z"/></g>
<g><path style="opacity:1" fill="#171765" d="M 27.5,26.5 C 29.854,26.838 32.1873,27.338 34.5,28C 35.9642,31.2409 34.7975,33.0743 31,33.5C 28.7766,31.7198 27.6099,29.3865 27.5,26.5 Z"/></g>
<g><path style="opacity:1" fill="#171765" d="M 24.5,27.5 C 27.505,30.8427 29.505,34.8427 30.5,39.5C 28.2776,39.822 26.4443,39.1554 25,37.5C 23.8006,34.1153 23.634,30.7819 24.5,27.5 Z"/></g>
<g><path style="opacity:1" fill="#161663" d="M 35.5,32.5 C 36.6129,33.9464 36.7796,35.6131 36,37.5C 33.2394,39.0172 31.4061,38.1838 30.5,35C 32.4913,34.6264 34.158,33.793 35.5,32.5 Z"/></g>
<g><path style="opacity:1" fill="#161664" d="M 40.5,37.5 C 41.3764,37.3691 42.0431,37.7025 42.5,38.5C 40.1252,42.7995 36.4585,44.2995 31.5,43C 29.7536,42.5291 28.087,41.8624 26.5,41C 31.4017,40.2591 36.0684,39.0924 40.5,37.5 Z"/></g>
<g><path style="opacity:1" fill="#171767" d="M 32.5,49.5 C 27.743,52.4148 23.243,52.0814 19,48.5C 18.2086,47.255 17.7086,45.9217 17.5,44.5C 17.238,43.0222 17.5713,41.6888 18.5,40.5C 23.9559,41.763 29.2893,43.4297 34.5,45.5C 33.3698,46.6223 32.7031,47.9557 32.5,49.5 Z"/></g>
<g><path style="opacity:1" fill="#171767" d="M 44.5,44.5 C 43.9726,50.849 40.6392,53.0157 34.5,51C 33.944,50.6174 33.6107,50.1174 33.5,49.5C 35.5667,44.2998 39.2333,42.6332 44.5,44.5 Z"/></g>
</svg>
