<svg width="64" height="64" xmlns="http://www.w3.org/2000/svg" clip-rule="evenodd" version="1.1">

 <g>
  <title>Layer 1</title>
  <g id="svg_1">
   <path id="svg_2" d="m23.5,10.5c7.8688,-1.76074 11.8688,1.2393 12,9c-2.9929,-0.6346 -5.9929,-0.8013 -9,-0.5c-4.2946,1.3815 -8.2946,3.0481 -12,5c-1.2972,-2.5446 -1.1305,-5.0446 0.5,-7.5c2.6371,-2.391 5.4704,-4.391 8.5,-6z" fill="#171767"/>
  </g>
  <g id="svg_3">
   <path id="svg_4" d="m37.5,14.5c4.3027,-0.7038 7.8027,0.6295 10.5,4c0.6869,2.4203 0.1869,4.587 -1.5,6.5c-0.6667,0.6667 -1.3333,0.6667 -2,0c-2.056,-2.4441 -4.556,-4.2774 -7.5,-5.5c-0.6397,-1.765 -0.4731,-3.4317 0.5,-5z" fill="#171767"/>
  </g>
  <g id="svg_5">
   <path id="svg_6" d="m27.5,19.5c1.3221,-0.17 2.4887,0.1634 3.5,1c0.7065,1.5806 1.5399,3.0806 2.5,4.5c-0.5,0.5 -1,1 -1.5,1.5c-2.1317,-1.2797 -4.2984,-1.2797 -6.5,0c-0.8081,-0.3076 -1.4747,-0.8076 -2,-1.5c0.5359,-2.5079 1.8692,-4.3413 4,-5.5z" fill="#161663"/>
  </g>
  <g id="svg_7">
   <path id="svg_8" d="m33.5,20.5c9.77,1.7046 13.1033,7.0379 10,16c-2.0412,0.3541 -3.8745,0.3541 -5.5,0c-0.8859,-5.5484 -2.3859,-10.8817 -4.5,-16z" fill="#171767"/>
  </g>
  <g id="svg_9">
   <path id="svg_10" d="m21.5,21.5c0.7891,0.2828 1.4558,0.7828 2,1.5c-1.1219,3.4085 -1.2886,6.9085 -0.5,10.5c0.0929,2.5075 0.9262,4.6741 2.5,6.5c-5.2105,1.2322 -8.2105,-0.7678 -9,-6c0.6936,-4.6611 2.3603,-8.8278 5,-12.5z" fill="#171766"/>
  </g>
  <g id="svg_11">
   <path id="svg_12" d="m49.5,22.5c2.4115,-0.3633 3.9115,0.6367 4.5,3c0.9369,4.9033 0.2702,9.5699 -2,14c-2.7624,3.9925 -5.929,4.6591 -9.5,2c2.1632,-6.4991 4.4965,-12.8325 7,-19z" fill="#171766"/>
  </g>
  <g id="svg_13">
   <path id="svg_14" d="m14.5,25.5c1.175,-0.219 2.175,0.1143 3,1c-2.1704,4.3607 -2.5037,8.8607 -1,13.5c0.1125,1.6624 -0.5542,2.8291 -2,3.5c-4.1953,-1.3515 -6.19527,-4.1848 -6,-8.5c-0.3668,-4.7851 1.6332,-7.9518 6,-9.5z" fill="#171766"/>
  </g>
  <g id="svg_15">
   <path id="svg_16" d="m27.5,26.5c2.354,0.338 4.6873,0.838 7,1.5c1.4642,3.2409 0.2975,5.0743 -3.5,5.5c-2.2234,-1.7802 -3.3901,-4.1135 -3.5,-7z" fill="#171765"/>
  </g>
  <g id="svg_17">
   <path id="svg_18" d="m24.5,27.5c3.005,3.3427 5.005,7.3427 6,12c-2.2224,0.322 -4.0557,-0.3446 -5.5,-2c-1.1994,-3.3847 -1.366,-6.7181 -0.5,-10z" fill="#171765"/>
  </g>
  <g id="svg_19">
   <path id="svg_20" d="m35.5,32.5c1.1129,1.4464 1.2796,3.1131 0.5,5c-2.7606,1.5172 -4.5939,0.6838 -5.5,-2.5c1.9913,-0.3736 3.658,-1.207 5,-2.5z" fill="#161663"/>
  </g>
  <g id="svg_21">
   <path id="svg_22" d="m40.5,37.5c2.1885,1.1518 2.1885,2.6518 0,4.5c-4.8205,2.0871 -9.4872,1.7537 -14,-1c4.9017,-0.7409 9.5684,-1.9076 14,-3.5z" fill="#171764"/>
  </g>
  <g id="svg_23">
   <path id="svg_24" d="m18.5,40.5c5.573,1.1354 10.9063,2.9688 16,5.5c-2.5697,4.9483 -6.5697,6.615 -12,5c-4.572,-2.3049 -5.9053,-5.8049 -4,-10.5z" fill="#181867"/>
  </g>
  <g id="svg_25">
   <path id="svg_26" d="m38.5,43.5c6.614,0.2543 7.614,2.7543 3,7.5c-9.4636,0.9057 -10.4636,-1.5943 -3,-7.5z" fill="#171767"/>
  </g>
  <text style="cursor: text;" stroke="null" font-weight="bold" font-style="normal" xml:space="preserve" text-anchor="start" font-family="Noto Sans JP" font-size="15" id="svg_29" y="62" x="0.06677" stroke-width="0" fill="#171767">Blue Rose</text>
 </g>
</svg>