<?xml version="1.0" encoding="UTF-8"?>
<!DOCTYPE svg PUBLIC "-//W3C//DTD SVG 1.1//EN" "http://www.w3.org/Graphics/SVG/1.1/DTD/svg11.dtd">
<svg xmlns="http://www.w3.org/2000/svg" version="1.1" width="64px" height="64px" style="shape-rendering:geometricPrecision; text-rendering:geometricPrecision; image-rendering:optimizeQuality; fill-rule:evenodd; clip-rule:evenodd" xmlns:xlink="http://www.w3.org/1999/xlink">
<g><path style="opacity:1" fill="#171767" d="M 23.5,10.5 C 31.3688,8.73926 35.3688,11.7393 35.5,19.5C 32.5071,18.8654 29.5071,18.6987 26.5,19C 22.2054,20.3815 18.2054,22.0481 14.5,24C 13.2028,21.4554 13.3695,18.9554 15,16.5C 17.6371,14.109 20.4704,12.109 23.5,10.5 Z"/></g>
<g><path style="opacity:1" fill="#171767" d="M 37.5,14.5 C 41.8027,13.7962 45.3027,15.1295 48,18.5C 48.6869,20.9203 48.1869,23.087 46.5,25C 45.8333,25.6667 45.1667,25.6667 44.5,25C 42.444,22.5559 39.944,20.7226 37,19.5C 36.3603,17.735 36.5269,16.0683 37.5,14.5 Z"/></g>
<g><path style="opacity:1" fill="#161663" d="M 27.5,19.5 C 28.8221,19.33 29.9887,19.6634 31,20.5C 31.7065,22.0806 32.5399,23.5806 33.5,25C 33,25.5 32.5,26 32,26.5C 29.8683,25.2203 27.7016,25.2203 25.5,26.5C 24.6919,26.1924 24.0253,25.6924 23.5,25C 24.0359,22.4921 25.3692,20.6587 27.5,19.5 Z"/></g>
<g><path style="opacity:1" fill="#171767" d="M 33.5,20.5 C 43.27,22.2046 46.6033,27.5379 43.5,36.5C 41.4588,36.8541 39.6255,36.8541 38,36.5C 37.1141,30.9516 35.6141,25.6183 33.5,20.5 Z"/></g>
<g><path style="opacity:1" fill="#171766" d="M 21.5,21.5 C 22.2891,21.7828 22.9558,22.2828 23.5,23C 22.3781,26.4085 22.2114,29.9085 23,33.5C 23.0929,36.0075 23.9262,38.1741 25.5,40C 20.2895,41.2322 17.2895,39.2322 16.5,34C 17.1936,29.3389 18.8603,25.1722 21.5,21.5 Z"/></g>
<g><path style="opacity:1" fill="#171766" d="M 49.5,22.5 C 51.9115,22.1367 53.4115,23.1367 54,25.5C 54.9369,30.4033 54.2702,35.0699 52,39.5C 49.2376,43.4925 46.071,44.1591 42.5,41.5C 44.6632,35.0009 46.9965,28.6675 49.5,22.5 Z"/></g>
<g><path style="opacity:1" fill="#171766" d="M 14.5,25.5 C 15.675,25.281 16.675,25.6143 17.5,26.5C 15.3296,30.8607 14.9963,35.3607 16.5,40C 16.6125,41.6624 15.9458,42.8291 14.5,43.5C 10.3047,42.1485 8.30473,39.3152 8.5,35C 8.1332,30.2149 10.1332,27.0482 14.5,25.5 Z"/></g>
<g><path style="opacity:1" fill="#171765" d="M 27.5,26.5 C 29.854,26.838 32.1873,27.338 34.5,28C 35.9642,31.2409 34.7975,33.0743 31,33.5C 28.7766,31.7198 27.6099,29.3865 27.5,26.5 Z"/></g>
<g><path style="opacity:1" fill="#171765" d="M 24.5,27.5 C 27.505,30.8427 29.505,34.8427 30.5,39.5C 28.2776,39.822 26.4443,39.1554 25,37.5C 23.8006,34.1153 23.634,30.7819 24.5,27.5 Z"/></g>
<g><path style="opacity:1" fill="#161663" d="M 35.5,32.5 C 36.6129,33.9464 36.7796,35.6131 36,37.5C 33.2394,39.0172 31.4061,38.1838 30.5,35C 32.4913,34.6264 34.158,33.793 35.5,32.5 Z"/></g>
<g><path style="opacity:1" fill="#171764" d="M 40.5,37.5 C 42.6885,38.6518 42.6885,40.1518 40.5,42C 35.6795,44.0871 31.0128,43.7537 26.5,41C 31.4017,40.2591 36.0684,39.0924 40.5,37.5 Z"/></g>
<g><path style="opacity:1" fill="#181867" d="M 18.5,40.5 C 24.073,41.6354 29.4063,43.4688 34.5,46C 31.9303,50.9483 27.9303,52.615 22.5,51C 17.928,48.6951 16.5947,45.1951 18.5,40.5 Z"/></g>
<g><path style="opacity:1" fill="#171767" d="M 38.5,43.5 C 45.114,43.7543 46.114,46.2543 41.5,51C 32.0364,51.9057 31.0364,49.4057 38.5,43.5 Z"/></g>
</svg>
