<svg width="64" height="64" xmlns="http://www.w3.org/2000/svg" version="1.1" clip-rule="evenodd">
 <g>
  <title>Layer 1</title>
  <g stroke="null" id="svg_1">
   <path stroke="null" fill="#000000" d="m4.12354,-0.5c18.54086,0 37.08173,0 55.62259,0c2.0601,1.36338 3.77688,3.06761 5.15024,5.11268c0,18.40565 0,36.8113 0,55.21695c-1.37336,2.04507 -3.09014,3.74933 -5.15024,5.11268c-18.54086,0 -37.08173,0 -55.62259,0c-2.0601,-1.36335 -3.77685,-3.06761 -5.15024,-5.11268c0,-18.40565 0,-36.8113 0,-55.21695c1.37339,-2.04507 3.09014,-3.7493 5.15024,-5.11268z" id="svg_2"/>
  </g>
  <g id="svg_3">
   <path fill="#171767" d="m34.13355,7.41026c0.8414,1.8792 1.1747,3.8792 1,6c-7.3787,-1.318 -14.0453,0.3487 -20,5c-0.6835,-0.3627 -1.3501,-0.6961 -2,-1c0.1086,-6.6208 3.4419,-10.7874 10,-12.5c2.6667,-0.6667 5.3333,-0.6667 8,0c1.4423,0.3768 2.4423,1.2101 3,2.5z" id="svg_4"/>
  </g>
  <g id="svg_5">
   <path fill="#060532" d="m34.29381,7.41026c1.109,0.0569 2.109,0.3902 3,1c-0.9731,1.5683 -1.1397,3.235 -0.5,5c2.944,1.2226 5.444,3.0559 7.5,5.5c2.2406,0.1242 3.5739,-1.0425 4,-3.5c0.6667,0 1,0.3333 1,1c-2.5035,6.1675 -4.8368,12.5009 -7,19c0.5047,1.4185 1.5047,2.0852 3,2c0,0.6667 -0.3333,1 -1,1c-5.2667,-1.8668 -8.9333,-0.2002 -11,5c-0.3333,0 -0.6667,0 -1,0c0.2031,-1.5443 0.8698,-2.8777 2,-4c-5.2107,-2.0703 -10.5441,-3.737 -16,-5c-0.9287,1.1888 -1.262,2.5222 -1,4c-0.6667,-0.3333 -1.3333,-0.6667 -2,-1c1.029,-3.0925 1.029,-6.2592 0,-9.5c0.1568,-2.6369 0.8235,-5.1369 2,-7.5c-1.5948,-0.9339 -3.2615,-0.9339 -5,0c0.6098,-0.891 0.9431,-1.891 1,-3c0.6499,0.3039 1.3165,0.6373 2,1c5.9547,-4.6513 12.6213,-6.318 20,-5c0.1747,-2.1208 -0.1586,-4.1208 -1,-6z" id="svg_6"/>
  </g>
  <g id="svg_7">
   <path fill="#171767" d="m37.13355,8.41026c5.9123,-0.8913 9.5789,1.442 11,7c-0.4261,2.4575 -1.7594,3.6242 -4,3.5c-2.056,-2.4441 -4.556,-4.2774 -7.5,-5.5c-0.6397,-1.765 -0.4731,-3.4317 0.5,-5z" id="svg_8"/>
  </g>
  <g id="svg_9">
   <path fill="#161663" d="m27.13355,13.41026c1.3221,-0.17 2.4887,0.1634 3.5,1c1.541,1.977 2.041,3.977 1.5,6c-3.0548,-0.6935 -6.0548,-1.0268 -9,-1c0.437,-2.725 1.7704,-4.725 4,-6z" id="svg_10"/>
  </g>
  <g id="svg_11">
   <path fill="#171766" d="m33.13355,14.41026c9.816,1.7397 13.1494,7.0731 10,16c-1.7624,-0.1427 -3.4291,0.1906 -5,1c-1.2082,-5.8387 -2.8748,-11.5054 -5,-17z" id="svg_12"/>
  </g>
  <g id="svg_13">
   <path fill="#171766" d="m21.13355,15.41026c0.8764,-0.1309 1.5431,0.2025 2,1c-1.0932,3.6078 -1.2599,7.2745 -0.5,11c0.0929,2.5075 0.9262,4.6741 2.5,6.5c-5.2105,1.2322 -8.2105,-0.7678 -9,-6c0.6936,-4.6611 2.3603,-8.8278 5,-12.5z" id="svg_14"/>
  </g>
  <g id="svg_15">
   <path fill="#171766" d="m49.13355,16.41026c2.4115,-0.3633 3.9115,0.6367 4.5,3c0.9369,4.9033 0.2702,9.5699 -2,14c-1.6379,2.2337 -3.8045,3.567 -6.5,4c-1.4953,0.0852 -2.4953,-0.5815 -3,-2c2.1632,-6.4991 4.4965,-12.8325 7,-19z" id="svg_16"/>
  </g>
  <g id="svg_17">
   <path fill="#171766" d="m15.13355,37.41026c-6.64158,-1.8821 -8.80825,-6.2154 -6.5,-13c0.68972,-1.8502 1.8564,-3.1836 3.5,-4c1.7385,-0.9339 3.4052,-0.9339 5,0c-1.1765,2.3631 -1.8432,4.8631 -2,7.5c1.029,3.2408 1.029,6.4075 0,9.5z" id="svg_18"/>
  </g>
  <g id="svg_19">
   <path fill="#171765" d="m27.13355,20.41026c2.354,0.338 4.6873,0.838 7,1.5c1.4642,3.2409 0.2975,5.0743 -3.5,5.5c-2.2234,-1.7802 -3.3901,-4.1135 -3.5,-7z" id="svg_20"/>
  </g>
  <g id="svg_21">
   <path fill="#171765" d="m24.13355,21.41026c3.005,3.3427 5.005,7.3427 6,12c-2.2224,0.322 -4.0557,-0.3446 -5.5,-2c-1.1994,-3.3847 -1.366,-6.7181 -0.5,-10z" id="svg_22"/>
  </g>
  <g id="svg_23">
   <path fill="#161663" d="m35.13355,26.41026c1.1129,1.4464 1.2796,3.1131 0.5,5c-2.7606,1.5172 -4.5939,0.6838 -5.5,-2.5c1.9913,-0.3736 3.658,-1.207 5,-2.5z" id="svg_24"/>
  </g>
  <g id="svg_25">
   <path fill="#161664" d="m40.13355,31.41026c0.8764,-0.1309 1.5431,0.2025 2,1c-2.3748,4.2995 -6.0415,5.7995 -11,4.5c-1.7464,-0.4709 -3.413,-1.1376 -5,-2c4.9017,-0.7409 9.5684,-1.9076 14,-3.5z" id="svg_26"/>
  </g>
  <g id="svg_27">
   <path fill="#171767" d="m32.13355,43.41026c-4.757,2.9148 -9.257,2.5814 -13.5,-1c-0.7914,-1.245 -1.2914,-2.5783 -1.5,-4c-0.262,-1.4778 0.0713,-2.8112 1,-4c5.4559,1.263 10.7893,2.9297 16,5c-1.1302,1.1223 -1.7969,2.4557 -2,4z" id="svg_28"/>
  </g>
  <g id="svg_29">
   <path fill="#171767" d="m44.13355,38.41026c-0.5274,6.349 -3.8608,8.5157 -10,6.5c-0.556,-0.3826 -0.8893,-0.8826 -1,-1.5c2.0667,-5.2002 5.7333,-6.8668 11,-5z" id="svg_30"/>
  </g>
  <text font-weight="bold" xml:space="preserve" text-anchor="start" font-family="Noto Sans JP" font-size="15" id="svg_31" y="56.21573" x="-0.22288" stroke-width="0" fill="#171767">Blue Rose</text>
 </g>

</svg>